<svg viewBox="0 0 129 129" fill="none" xmlns="http://www.w3.org/2000/svg">
  <path d="M65.2676 23.9297C56.763 23.9297 48.4494 26.4516 41.3781 31.1765C34.3068 35.9014 28.7953 42.6171 25.5408 50.4743C22.2862 58.3315 21.4347 66.9774 23.0938 75.3186C24.753 83.6598 28.8483 91.3216 34.862 97.3353C40.8757 103.349 48.5375 107.444 56.8787 109.103C65.2199 110.763 73.8658 109.911 81.723 106.657C89.5802 103.402 96.2959 97.8905 101.021 90.8192C105.746 83.7479 108.268 75.4343 108.268 66.9297C108.255 55.5293 103.72 44.5995 95.659 36.5382C87.5978 28.4769 76.668 23.9425 65.2676 23.9297ZM65.2676 106.858C57.3705 106.858 49.6507 104.516 43.0845 100.129C36.5183 95.7417 31.4005 89.5057 28.3784 82.2097C25.3563 74.9137 24.5656 66.8854 26.1062 59.14C27.6469 51.3946 31.4497 44.28 37.0338 38.6959C42.6179 33.1118 49.7325 29.309 57.4779 27.7683C65.2233 26.2277 73.2516 27.0184 80.5476 30.0405C87.8436 33.0626 94.0796 38.1803 98.467 44.7466C102.854 51.3128 105.196 59.0326 105.196 66.9297C105.184 77.5157 100.974 87.6647 93.4881 95.1502C86.0027 102.636 75.8536 106.846 65.2676 106.858Z" fill="#0DEFDA"/>
  <path d="M78.0773 56.9302L56.8781 78.0437L50.9323 71.7193L50.9324 71.7193L50.9304 71.7172C50.6723 71.4459 50.3174 71.2877 49.9426 71.2794C49.5678 71.271 49.2062 71.4132 48.9364 71.673C48.6668 71.9325 48.5108 72.2883 48.5005 72.662C48.4903 73.0358 48.6264 73.3996 48.8811 73.6737L48.8811 73.6737L48.8831 73.6758L55.8201 81.0554C55.8202 81.0554 55.8202 81.0555 55.8203 81.0556C55.949 81.1926 56.1037 81.3027 56.2756 81.3791C56.4476 81.4556 56.6331 81.4967 56.8213 81.4999L56.8213 81.5H56.8299H56.8454H56.8457C57.2179 81.4997 57.5739 81.3514 57.8373 81.0889L80.0608 58.9537C80.1956 58.8246 80.3035 58.6702 80.3787 58.4994L79.9211 58.2979L80.3787 58.4994C80.4548 58.3265 80.4959 58.1402 80.4997 57.9514C80.5035 57.7626 80.47 57.5748 80.4009 57.399C80.3319 57.2231 80.2287 57.0627 80.097 56.9272C79.9653 56.7917 79.8078 56.6838 79.6336 56.6103C79.4595 56.5369 79.2723 56.4993 79.0832 56.5C78.8941 56.5007 78.7073 56.5397 78.5336 56.6146C78.3621 56.6885 78.207 56.7959 78.0773 56.9302Z" fill="#3BDFFD" stroke="#3BDFFD"/>
  <path d="M115.732 112.808H81.5932C92.4009 108.798 101.455 101.117 107.172 91.1073C112.89 81.0976 114.906 69.3965 112.869 58.0505C110.832 46.7044 104.872 36.4354 96.0297 29.0394C87.1876 21.6434 76.027 17.5911 64.4996 17.5911C52.9721 17.5911 41.8115 21.6434 32.9695 29.0394C24.1275 36.4354 18.1669 46.7044 16.13 58.0505C14.0931 69.3965 16.1096 81.0976 21.8269 91.1073C27.5442 101.117 36.5983 108.798 47.4059 112.808H13.267C13.0485 112.78 12.8265 112.798 12.6157 112.862C12.4049 112.926 12.2102 113.035 12.0446 113.18C11.879 113.325 11.7464 113.504 11.6555 113.705C11.5646 113.906 11.5176 114.123 11.5176 114.344C11.5176 114.564 11.5646 114.782 11.6555 114.983C11.7464 115.183 11.879 115.362 12.0446 115.508C12.2102 115.653 12.4049 115.761 12.6157 115.826C12.8265 115.89 13.0485 115.908 13.267 115.88H115.732C115.951 115.908 116.173 115.89 116.383 115.826C116.594 115.761 116.789 115.653 116.955 115.508C117.12 115.362 117.253 115.183 117.344 114.983C117.435 114.782 117.482 114.564 117.482 114.344C117.482 114.123 117.435 113.906 117.344 113.705C117.253 113.504 117.12 113.325 116.955 113.18C116.789 113.035 116.594 112.926 116.383 112.862C116.173 112.798 115.951 112.78 115.732 112.808ZM18.4285 66.7366C18.4285 57.6246 21.1306 48.7171 26.193 41.1407C31.2554 33.5643 38.4507 27.6592 46.8692 24.1722C55.2877 20.6852 64.5511 19.7728 73.4881 21.5505C82.425 23.3281 90.6342 27.716 97.0774 34.1592C103.521 40.6024 107.908 48.8116 109.686 57.7486C111.464 66.6855 110.551 75.949 107.064 84.3674C103.577 92.7859 97.6723 99.9812 90.0959 105.044C82.5195 110.106 73.612 112.808 64.5 112.808C52.2853 112.794 40.5749 107.936 31.9378 99.2988C23.3007 90.6617 18.4424 78.9513 18.4285 66.7366ZM67.9553 13.5625C68.4109 13.5625 68.8563 13.4274 69.2351 13.1743C69.6139 12.9212 69.9092 12.5614 70.0835 12.1405C70.2579 11.7196 70.3035 11.2564 70.2146 10.8096C70.1258 10.3627 69.9064 9.95226 69.5842 9.6301C69.262 9.30794 68.8516 9.08855 68.4047 8.99967C67.9579 8.91078 67.4947 8.9564 67.0738 9.13075C66.6529 9.3051 66.2931 9.60036 66.04 9.97918C65.7869 10.358 65.6518 10.8034 65.6518 11.259C65.6524 11.8697 65.8953 12.4553 66.3271 12.8872C66.759 13.319 67.3446 13.5619 67.9553 13.5625ZM67.9553 10.1072C68.1831 10.1072 68.4058 10.1747 68.5952 10.3013C68.7846 10.4279 68.9323 10.6077 69.0194 10.8182C69.1066 11.0287 69.1294 11.2603 69.085 11.4837C69.0405 11.7071 68.9308 11.9123 68.7698 12.0734C68.6087 12.2345 68.4035 12.3442 68.18 12.3886C67.9566 12.4331 67.725 12.4103 67.5146 12.3231C67.3041 12.2359 67.1242 12.0883 66.9977 11.8989C66.8711 11.7095 66.8035 11.4868 66.8035 11.259C66.8037 10.9536 66.9252 10.6607 67.1411 10.4448C67.3571 10.2288 67.6499 10.1074 67.9553 10.1072ZM121.556 52.1474C121.252 52.1474 120.955 52.2374 120.702 52.4062C120.45 52.5749 120.253 52.8148 120.137 53.0954C120.021 53.376 119.99 53.6848 120.049 53.9827C120.109 54.2806 120.255 54.5542 120.47 54.769C120.684 54.9838 120.958 55.13 121.256 55.1893C121.554 55.2485 121.863 55.2181 122.143 55.1019C122.424 54.9857 122.664 54.7888 122.833 54.5363C123.001 54.2837 123.091 53.9868 123.091 53.6831C123.091 53.2759 122.929 52.8855 122.641 52.5976C122.353 52.3097 121.963 52.1478 121.556 52.1474ZM121.556 54.4509C121.404 54.4509 121.255 54.4059 121.129 54.3215C121.003 54.2372 120.904 54.1172 120.846 53.9769C120.788 53.8366 120.773 53.6822 120.802 53.5333C120.832 53.3843 120.905 53.2475 121.013 53.1401C121.12 53.0327 121.257 52.9596 121.406 52.93C121.555 52.9003 121.709 52.9156 121.849 52.9737C121.99 53.0318 122.11 53.1302 122.194 53.2565C122.278 53.3828 122.323 53.5312 122.323 53.6831C122.323 53.8867 122.242 54.0818 122.098 54.2258C121.954 54.3698 121.759 54.4507 121.556 54.4509ZM99.8214 2.74805C99.5177 2.74805 99.2207 2.83812 98.9682 3.00686C98.7157 3.17561 98.5188 3.41545 98.4026 3.69607C98.2863 3.97668 98.2559 4.28546 98.3152 4.58336C98.3745 4.88126 98.5207 5.1549 98.7355 5.36967C98.9503 5.58445 99.2239 5.73071 99.5218 5.78997C99.8197 5.84922 100.128 5.81881 100.409 5.70258C100.69 5.58634 100.93 5.38951 101.098 5.13696C101.267 4.88441 101.357 4.5875 101.357 4.28376C101.357 3.87659 101.195 3.48621 100.907 3.1983C100.619 2.91038 100.229 2.74845 99.8214 2.74805ZM99.8214 5.05162C99.6695 5.05162 99.5211 5.00658 99.3948 4.92221C99.2685 4.83784 99.1701 4.71791 99.112 4.57761C99.0539 4.4373 99.0387 4.28291 99.0683 4.13396C99.0979 3.98501 99.1711 3.84819 99.2784 3.7408C99.3858 3.63342 99.5227 3.56029 99.6716 3.53066C99.8206 3.50103 99.9749 3.51624 100.115 3.57435C100.256 3.63247 100.375 3.73089 100.46 3.85716C100.544 3.98344 100.589 4.13189 100.589 4.28376C100.589 4.48735 100.508 4.68254 100.364 4.82649C100.22 4.97045 100.025 5.05141 99.8214 5.05162ZM123.881 11.7066C123.577 11.7066 123.28 11.7967 123.027 11.9655C122.775 12.1342 122.578 12.374 122.462 12.6547C122.346 12.9353 122.315 13.2441 122.374 13.542C122.434 13.8399 122.58 14.1135 122.795 14.3283C123.01 14.543 123.283 14.6893 123.581 14.7486C123.879 14.8078 124.188 14.7774 124.468 14.6612C124.749 14.5449 124.989 14.3481 125.158 14.0955C125.326 13.843 125.416 13.5461 125.416 13.2423C125.416 12.8352 125.254 12.4448 124.966 12.1569C124.678 11.869 124.288 11.707 123.881 11.7066ZM123.881 14.0102C123.729 14.0102 123.58 13.9652 123.454 13.8808C123.328 13.7964 123.229 13.6765 123.171 13.5362C123.113 13.3959 123.098 13.2415 123.128 13.0925C123.157 12.9436 123.23 12.8068 123.338 12.6994C123.445 12.592 123.582 12.5189 123.731 12.4892C123.88 12.4596 124.034 12.4748 124.175 12.5329C124.315 12.5911 124.435 12.6895 124.519 12.8158C124.604 12.942 124.649 13.0905 124.649 13.2423C124.648 13.4459 124.567 13.6411 124.423 13.7851C124.279 13.929 124.084 14.01 123.881 14.0102ZM23.2699 23.4802C23.2699 23.1765 23.1798 22.8795 23.0111 22.627C22.8423 22.3744 22.6025 22.1776 22.3219 22.0614C22.0412 21.9451 21.7325 21.9147 21.4346 21.974C21.1367 22.0332 20.863 22.1795 20.6483 22.3943C20.4335 22.609 20.2872 22.8827 20.228 23.1806C20.1687 23.4785 20.1991 23.7873 20.3153 24.0679C20.4316 24.3485 20.6284 24.5883 20.881 24.7571C21.1335 24.9258 21.4304 25.0159 21.7342 25.0159C22.1413 25.0155 22.5317 24.8536 22.8196 24.5657C23.1075 24.2777 23.2695 23.8874 23.2699 23.4802ZM20.9663 23.4802C20.9663 23.3283 21.0113 23.1799 21.0957 23.0536C21.1801 22.9273 21.3 22.8289 21.4403 22.7708C21.5806 22.7127 21.735 22.6975 21.884 22.7271C22.0329 22.7567 22.1697 22.8298 22.2771 22.9372C22.3845 23.0446 22.4576 23.1814 22.4873 23.3304C22.5169 23.4793 22.5017 23.6337 22.4436 23.774C22.3855 23.9143 22.287 24.0343 22.1608 24.1186C22.0345 24.203 21.886 24.248 21.7342 24.248C21.5306 24.2478 21.3354 24.1669 21.1914 24.0229C21.0475 23.879 20.9665 23.6838 20.9663 23.4802Z" fill="#3BDFFD"/>
  <path d="M8.35997 52.1562L9.50177 50.6543L8.78076 50.2458L8.04745 51.9274H8.02365L7.27883 50.2581L6.54552 50.6781L7.67504 52.1447V52.1685L5.9082 51.9397V52.7567L7.68656 52.5286V52.5524L6.54552 54.0183L7.22969 54.4514L8.01136 52.7567H8.03517L8.75619 54.4391L9.51329 54.0068L8.35997 52.5647V52.5402L10.1736 52.7567V51.9397L8.35997 52.18V52.1562ZM9.33822 4.78943L8.68093 5.6333L9.07485 5.88285L9.52481 4.90691H9.53863L9.95404 5.87594L10.3902 5.62639L9.72599 4.79634V4.78252L10.7703 4.90691V4.43621L9.72599 4.57519V4.56137L10.3833 3.696L9.96786 3.46103L9.54631 4.4293H9.53172L9.10326 3.46794L8.68093 3.70982L9.33131 4.55446V4.56828L8.3139 4.43621V4.90691L9.33822 4.7756V4.78943ZM50.1445 4.83243V4.03078L48.3653 4.26652V4.24271L49.4849 2.76996L48.7777 2.36914L48.059 4.01927H48.0351L47.3049 2.38066L46.5854 2.79377L47.6935 4.23119V4.255L45.9604 4.03078V4.83243L47.705 4.60821V4.63202L46.5854 6.06944L47.2573 6.49407L48.0236 4.83243H48.0467L48.7539 6.48178L49.4964 6.05793L48.3653 4.64353V4.61973L50.1445 4.83243ZM106.623 27.5188L107.589 26.248L106.978 25.9024L106.359 27.3253H106.338L105.708 25.9124L105.087 26.2679L106.043 27.5088V27.5287L104.549 27.3352V28.0263L106.053 27.8336V27.8543L105.087 29.0936L105.667 29.4599L106.328 28.0263H106.348L106.957 29.4499L107.599 29.0837L106.623 27.8643V27.8436L108.157 28.0263V27.3352L106.623 27.5387V27.5188Z" fill="#0DEFDA"/>
  <path d="M1.53571 115.88C2.38387 115.88 3.07143 115.192 3.07143 114.344C3.07143 113.496 2.38387 112.809 1.53571 112.809C0.687563 112.809 0 113.496 0 114.344C0 115.192 0.687563 115.88 1.53571 115.88Z" fill="#3BDFFD"/>
  <path d="M8.44671 112.809H6.14314C5.73584 112.809 5.34522 112.97 5.05722 113.258C4.76922 113.546 4.60742 113.937 4.60742 114.344C4.60742 114.752 4.76922 115.142 5.05722 115.43C5.34522 115.718 5.73584 115.88 6.14314 115.88H8.44671C8.854 115.88 9.24462 115.718 9.53262 115.43C9.82062 115.142 9.98242 114.752 9.98242 114.344C9.98242 113.937 9.82062 113.546 9.53262 113.258C9.24462 112.97 8.854 112.809 8.44671 112.809ZM122.857 112.809H120.554C120.147 112.809 119.756 112.97 119.468 113.258C119.18 113.546 119.018 113.937 119.018 114.344C119.018 114.752 119.18 115.142 119.468 115.43C119.756 115.718 120.147 115.88 120.554 115.88H122.857C123.265 115.88 123.655 115.718 123.943 115.43C124.231 115.142 124.393 114.752 124.393 114.344C124.393 113.937 124.231 113.546 123.943 113.258C123.655 112.97 123.265 112.809 122.857 112.809Z" fill="#3BDFFD"/>
  <path d="M127.463 115.88C128.312 115.88 128.999 115.192 128.999 114.344C128.999 113.496 128.312 112.809 127.463 112.809C126.615 112.809 125.928 113.496 125.928 114.344C125.928 115.192 126.615 115.88 127.463 115.88Z" fill="#3BDFFD"/>
  <path d="M90.7256 118.951H84.3462C83.9595 118.981 83.5983 119.156 83.3348 119.441C83.0713 119.725 82.9249 120.099 82.9249 120.487C82.9249 120.875 83.0713 121.248 83.3348 121.533C83.5983 121.818 83.9595 121.993 84.3462 122.023H90.7256C91.1123 121.993 91.4735 121.818 91.737 121.533C92.0005 121.248 92.1469 120.875 92.1469 120.487C92.1469 120.099 92.0005 119.725 91.737 119.441C91.4735 119.156 91.1123 118.981 90.7256 118.951ZM44.6541 118.951H38.2748C37.888 118.981 37.5268 119.156 37.2634 119.441C36.9999 119.725 36.8535 120.099 36.8535 120.487C36.8535 120.875 36.9999 121.248 37.2634 121.533C37.5268 121.818 37.888 121.993 38.2748 122.023H44.6541C45.0409 121.993 45.4021 121.818 45.6656 121.533C45.9291 121.248 46.0754 120.875 46.0754 120.487C46.0754 120.099 45.9291 119.725 45.6656 119.441C45.4021 119.156 45.0409 118.981 44.6541 118.951ZM79.8573 118.951H49.143C48.7357 118.951 48.3451 119.113 48.0571 119.401C47.7691 119.689 47.6073 120.08 47.6073 120.487C47.6073 120.894 47.7691 121.285 48.0571 121.573C48.3451 121.861 48.7357 122.023 49.143 122.023H61.3827V123.558H55.2859C54.8786 123.558 54.488 123.72 54.2 124.008C53.912 124.296 53.7502 124.687 53.7502 125.094C53.7502 125.501 53.912 125.892 54.2 126.18C54.488 126.468 54.8786 126.63 55.2859 126.63H74.4823C74.8896 126.63 75.2802 126.468 75.5682 126.18C75.8562 125.892 76.018 125.501 76.018 125.094C76.018 124.687 75.8562 124.296 75.5682 124.008C75.2802 123.72 74.8896 123.558 74.4823 123.558H67.6177V122.023H79.8573C80.2646 122.023 80.6552 121.861 80.9432 121.573C81.2312 121.285 81.393 120.894 81.393 120.487C81.393 120.08 81.2312 119.689 80.9432 119.401C80.6552 119.113 80.2646 118.951 79.8573 118.951Z" fill="#0DEFDA"/>
</svg>
